<mxfile host="app.diagrams.net" agent="Mozilla/5.0 (Windows NT 10.0; Win64; x64) AppleWebKit/537.36 (KHTML, like Gecko) Chrome/129.0.0.0 Safari/537.36" version="24.7.17">
  <diagram name="Page-1" id="Wvb0MLdEMZ7CZ2ufx77k">
    <mxGraphModel dx="1235" dy="655" grid="1" gridSize="10" guides="1" tooltips="1" connect="1" arrows="1" fold="1" page="1" pageScale="1" pageWidth="850" pageHeight="1100" math="0" shadow="0">
      <root>
        <mxCell id="0" />
        <mxCell id="1" parent="0" />
        <mxCell id="oEvCSY-mzVVuWPamZBWD-13" style="edgeStyle=orthogonalEdgeStyle;rounded=0;orthogonalLoop=1;jettySize=auto;html=1;exitX=1;exitY=0.3333333333333333;exitDx=0;exitDy=0;exitPerimeter=0;entryX=0;entryY=0.5;entryDx=0;entryDy=0;endArrow=none;endFill=0;curved=1;" edge="1" parent="1" source="oEvCSY-mzVVuWPamZBWD-2" target="oEvCSY-mzVVuWPamZBWD-6">
          <mxGeometry relative="1" as="geometry" />
        </mxCell>
        <mxCell id="oEvCSY-mzVVuWPamZBWD-14" style="edgeStyle=orthogonalEdgeStyle;rounded=0;orthogonalLoop=1;jettySize=auto;html=1;exitX=1;exitY=0.3333333333333333;exitDx=0;exitDy=0;exitPerimeter=0;entryX=0;entryY=0.5;entryDx=0;entryDy=0;endArrow=none;endFill=0;curved=1;" edge="1" parent="1" source="oEvCSY-mzVVuWPamZBWD-2" target="oEvCSY-mzVVuWPamZBWD-11">
          <mxGeometry relative="1" as="geometry" />
        </mxCell>
        <mxCell id="oEvCSY-mzVVuWPamZBWD-15" style="edgeStyle=orthogonalEdgeStyle;rounded=0;orthogonalLoop=1;jettySize=auto;html=1;exitX=1;exitY=0.3333333333333333;exitDx=0;exitDy=0;exitPerimeter=0;entryX=0;entryY=0.5;entryDx=0;entryDy=0;endArrow=none;endFill=0;curved=1;" edge="1" parent="1" source="oEvCSY-mzVVuWPamZBWD-2" target="oEvCSY-mzVVuWPamZBWD-7">
          <mxGeometry relative="1" as="geometry" />
        </mxCell>
        <mxCell id="oEvCSY-mzVVuWPamZBWD-16" style="edgeStyle=orthogonalEdgeStyle;rounded=0;orthogonalLoop=1;jettySize=auto;html=1;exitX=1;exitY=0.3333333333333333;exitDx=0;exitDy=0;exitPerimeter=0;entryX=0;entryY=0.5;entryDx=0;entryDy=0;endArrow=none;endFill=0;curved=1;" edge="1" parent="1" source="oEvCSY-mzVVuWPamZBWD-2" target="oEvCSY-mzVVuWPamZBWD-8">
          <mxGeometry relative="1" as="geometry" />
        </mxCell>
        <mxCell id="oEvCSY-mzVVuWPamZBWD-19" style="edgeStyle=orthogonalEdgeStyle;rounded=0;orthogonalLoop=1;jettySize=auto;html=1;exitX=1;exitY=0.3333333333333333;exitDx=0;exitDy=0;exitPerimeter=0;entryX=0;entryY=0.5;entryDx=0;entryDy=0;endArrow=none;endFill=0;curved=1;" edge="1" parent="1" source="oEvCSY-mzVVuWPamZBWD-2" target="oEvCSY-mzVVuWPamZBWD-10">
          <mxGeometry relative="1" as="geometry" />
        </mxCell>
        <mxCell id="oEvCSY-mzVVuWPamZBWD-20" style="edgeStyle=orthogonalEdgeStyle;rounded=0;orthogonalLoop=1;jettySize=auto;html=1;exitX=1;exitY=0.3333333333333333;exitDx=0;exitDy=0;exitPerimeter=0;entryX=0;entryY=0.5;entryDx=0;entryDy=0;curved=1;endArrow=none;endFill=0;" edge="1" parent="1" source="oEvCSY-mzVVuWPamZBWD-2" target="oEvCSY-mzVVuWPamZBWD-5">
          <mxGeometry relative="1" as="geometry">
            <Array as="points">
              <mxPoint x="160" y="230" />
              <mxPoint x="160" y="60" />
            </Array>
          </mxGeometry>
        </mxCell>
        <mxCell id="oEvCSY-mzVVuWPamZBWD-2" value="Professor" style="shape=umlActor;verticalLabelPosition=bottom;verticalAlign=top;html=1;" vertex="1" parent="1">
          <mxGeometry x="120" y="210" width="30" height="60" as="geometry" />
        </mxCell>
        <mxCell id="oEvCSY-mzVVuWPamZBWD-5" value="Autenticar se no sistema" style="ellipse;whiteSpace=wrap;html=1;" vertex="1" parent="1">
          <mxGeometry x="620" y="50" width="90" height="60" as="geometry" />
        </mxCell>
        <mxCell id="oEvCSY-mzVVuWPamZBWD-31" style="edgeStyle=orthogonalEdgeStyle;rounded=0;orthogonalLoop=1;jettySize=auto;html=1;exitX=1;exitY=0.5;exitDx=0;exitDy=0;curved=1;dashed=1;endArrow=classic;endFill=0;" edge="1" parent="1" source="oEvCSY-mzVVuWPamZBWD-6" target="oEvCSY-mzVVuWPamZBWD-5">
          <mxGeometry relative="1" as="geometry" />
        </mxCell>
        <mxCell id="oEvCSY-mzVVuWPamZBWD-6" value="Sair do sistema" style="ellipse;whiteSpace=wrap;html=1;" vertex="1" parent="1">
          <mxGeometry x="330" y="80" width="90" height="60" as="geometry" />
        </mxCell>
        <mxCell id="oEvCSY-mzVVuWPamZBWD-29" style="edgeStyle=orthogonalEdgeStyle;rounded=0;orthogonalLoop=1;jettySize=auto;html=1;exitX=1;exitY=0.5;exitDx=0;exitDy=0;entryX=0.5;entryY=1;entryDx=0;entryDy=0;curved=1;dashed=1;endArrow=classic;endFill=0;" edge="1" parent="1" source="oEvCSY-mzVVuWPamZBWD-7" target="oEvCSY-mzVVuWPamZBWD-5">
          <mxGeometry relative="1" as="geometry" />
        </mxCell>
        <mxCell id="oEvCSY-mzVVuWPamZBWD-33" style="edgeStyle=orthogonalEdgeStyle;rounded=0;orthogonalLoop=1;jettySize=auto;html=1;exitX=0.5;exitY=1;exitDx=0;exitDy=0;entryX=0.5;entryY=0;entryDx=0;entryDy=0;dashed=1;endArrow=blockThin;endFill=0;" edge="1" parent="1" source="oEvCSY-mzVVuWPamZBWD-7" target="oEvCSY-mzVVuWPamZBWD-8">
          <mxGeometry relative="1" as="geometry" />
        </mxCell>
        <mxCell id="oEvCSY-mzVVuWPamZBWD-34" value="&amp;lt;&amp;lt; extend&amp;gt;&amp;gt;" style="edgeLabel;html=1;align=center;verticalAlign=middle;resizable=0;points=[];" vertex="1" connectable="0" parent="oEvCSY-mzVVuWPamZBWD-33">
          <mxGeometry x="-0.2541" y="1" relative="1" as="geometry">
            <mxPoint as="offset" />
          </mxGeometry>
        </mxCell>
        <mxCell id="oEvCSY-mzVVuWPamZBWD-7" value="Excluir turmas" style="ellipse;whiteSpace=wrap;html=1;" vertex="1" parent="1">
          <mxGeometry x="330" y="220" width="90" height="60" as="geometry" />
        </mxCell>
        <mxCell id="oEvCSY-mzVVuWPamZBWD-25" style="edgeStyle=orthogonalEdgeStyle;rounded=0;orthogonalLoop=1;jettySize=auto;html=1;exitX=1;exitY=0.5;exitDx=0;exitDy=0;curved=1;dashed=1;endArrow=classic;endFill=0;" edge="1" parent="1" source="oEvCSY-mzVVuWPamZBWD-8">
          <mxGeometry relative="1" as="geometry">
            <mxPoint x="680" y="110" as="targetPoint" />
            <mxPoint x="460" y="350" as="sourcePoint" />
          </mxGeometry>
        </mxCell>
        <mxCell id="oEvCSY-mzVVuWPamZBWD-8" value="Visualizar turmas" style="ellipse;whiteSpace=wrap;html=1;" vertex="1" parent="1">
          <mxGeometry x="330" y="330" width="90" height="60" as="geometry" />
        </mxCell>
        <mxCell id="oEvCSY-mzVVuWPamZBWD-27" style="edgeStyle=orthogonalEdgeStyle;rounded=0;orthogonalLoop=1;jettySize=auto;html=1;exitX=1;exitY=0.5;exitDx=0;exitDy=0;entryX=1;entryY=1;entryDx=0;entryDy=0;curved=1;dashed=1;endArrow=classic;endFill=0;" edge="1" parent="1" source="oEvCSY-mzVVuWPamZBWD-9" target="oEvCSY-mzVVuWPamZBWD-5">
          <mxGeometry relative="1" as="geometry" />
        </mxCell>
        <mxCell id="oEvCSY-mzVVuWPamZBWD-9" value="Registrar turmas" style="ellipse;whiteSpace=wrap;html=1;" vertex="1" parent="1">
          <mxGeometry x="335" y="410" width="90" height="60" as="geometry" />
        </mxCell>
        <mxCell id="oEvCSY-mzVVuWPamZBWD-10" value="Visualizar atividades&lt;div&gt;&lt;br&gt;&lt;/div&gt;" style="ellipse;whiteSpace=wrap;html=1;" vertex="1" parent="1">
          <mxGeometry x="330" y="490" width="90" height="60" as="geometry" />
        </mxCell>
        <mxCell id="oEvCSY-mzVVuWPamZBWD-30" style="edgeStyle=orthogonalEdgeStyle;rounded=0;orthogonalLoop=1;jettySize=auto;html=1;exitX=1;exitY=0.5;exitDx=0;exitDy=0;entryX=0.262;entryY=0.979;entryDx=0;entryDy=0;entryPerimeter=0;curved=1;dashed=1;endArrow=classic;endFill=0;" edge="1" parent="1" source="oEvCSY-mzVVuWPamZBWD-11" target="oEvCSY-mzVVuWPamZBWD-5">
          <mxGeometry relative="1" as="geometry">
            <mxPoint x="640" y="130" as="targetPoint" />
          </mxGeometry>
        </mxCell>
        <mxCell id="oEvCSY-mzVVuWPamZBWD-11" value="Registrar atividades" style="ellipse;whiteSpace=wrap;html=1;" vertex="1" parent="1">
          <mxGeometry x="330" y="150" width="90" height="60" as="geometry" />
        </mxCell>
        <mxCell id="oEvCSY-mzVVuWPamZBWD-17" style="edgeStyle=orthogonalEdgeStyle;rounded=0;orthogonalLoop=1;jettySize=auto;html=1;exitX=1;exitY=0.3333333333333333;exitDx=0;exitDy=0;exitPerimeter=0;entryX=0;entryY=0.667;entryDx=0;entryDy=0;entryPerimeter=0;endArrow=none;endFill=0;curved=1;" edge="1" parent="1" source="oEvCSY-mzVVuWPamZBWD-2" target="oEvCSY-mzVVuWPamZBWD-9">
          <mxGeometry relative="1" as="geometry" />
        </mxCell>
        <mxCell id="oEvCSY-mzVVuWPamZBWD-28" style="edgeStyle=orthogonalEdgeStyle;rounded=0;orthogonalLoop=1;jettySize=auto;html=1;exitX=1;exitY=0.5;exitDx=0;exitDy=0;entryX=0.942;entryY=0.713;entryDx=0;entryDy=0;entryPerimeter=0;curved=1;dashed=1;endArrow=classic;endFill=0;" edge="1" parent="1" source="oEvCSY-mzVVuWPamZBWD-10" target="oEvCSY-mzVVuWPamZBWD-5">
          <mxGeometry relative="1" as="geometry" />
        </mxCell>
        <mxCell id="oEvCSY-mzVVuWPamZBWD-35" value="&amp;lt;&amp;lt; include&amp;gt;&amp;gt;" style="edgeLabel;html=1;align=center;verticalAlign=middle;resizable=0;points=[];" vertex="1" connectable="0" parent="1">
          <mxGeometry x="420" y="130.00352941176476" as="geometry">
            <mxPoint x="65" y="-29" as="offset" />
          </mxGeometry>
        </mxCell>
        <mxCell id="oEvCSY-mzVVuWPamZBWD-36" value="&amp;lt;&amp;lt; include&amp;gt;&amp;gt;" style="edgeLabel;html=1;align=center;verticalAlign=middle;resizable=0;points=[];" vertex="1" connectable="0" parent="1">
          <mxGeometry x="470" y="270.00352941176476" as="geometry">
            <mxPoint x="65" y="-29" as="offset" />
          </mxGeometry>
        </mxCell>
        <mxCell id="oEvCSY-mzVVuWPamZBWD-37" value="&amp;lt;&amp;lt; include&amp;gt;&amp;gt;" style="edgeLabel;html=1;align=center;verticalAlign=middle;resizable=0;points=[];" vertex="1" connectable="0" parent="1">
          <mxGeometry x="470" y="370.00352941176476" as="geometry">
            <mxPoint x="65" y="-29" as="offset" />
          </mxGeometry>
        </mxCell>
        <mxCell id="oEvCSY-mzVVuWPamZBWD-38" value="&amp;lt;&amp;lt; include&amp;gt;&amp;gt;" style="edgeLabel;html=1;align=center;verticalAlign=middle;resizable=0;points=[];" vertex="1" connectable="0" parent="1">
          <mxGeometry x="470" y="200.00352941176476" as="geometry">
            <mxPoint x="65" y="-29" as="offset" />
          </mxGeometry>
        </mxCell>
        <mxCell id="oEvCSY-mzVVuWPamZBWD-39" value="&amp;lt;&amp;lt; include&amp;gt;&amp;gt;" style="edgeLabel;html=1;align=center;verticalAlign=middle;resizable=0;points=[];" vertex="1" connectable="0" parent="1">
          <mxGeometry x="490" y="440.00352941176476" as="geometry">
            <mxPoint x="65" y="-29" as="offset" />
          </mxGeometry>
        </mxCell>
        <mxCell id="oEvCSY-mzVVuWPamZBWD-40" value="&amp;lt;&amp;lt; include&amp;gt;&amp;gt;" style="edgeLabel;html=1;align=center;verticalAlign=middle;resizable=0;points=[];" vertex="1" connectable="0" parent="1">
          <mxGeometry x="480" y="520.0035294117647" as="geometry">
            <mxPoint x="65" y="-29" as="offset" />
          </mxGeometry>
        </mxCell>
        <mxCell id="oEvCSY-mzVVuWPamZBWD-41" value="Professor" style="shape=table;startSize=30;container=1;collapsible=1;childLayout=tableLayout;fixedRows=1;rowLines=0;fontStyle=1;align=center;resizeLast=1;html=1;" vertex="1" parent="1">
          <mxGeometry x="900" y="130" width="180" height="150" as="geometry" />
        </mxCell>
        <mxCell id="oEvCSY-mzVVuWPamZBWD-42" value="" style="shape=tableRow;horizontal=0;startSize=0;swimlaneHead=0;swimlaneBody=0;fillColor=none;collapsible=0;dropTarget=0;points=[[0,0.5],[1,0.5]];portConstraint=eastwest;top=0;left=0;right=0;bottom=1;" vertex="1" parent="oEvCSY-mzVVuWPamZBWD-41">
          <mxGeometry y="30" width="180" height="30" as="geometry" />
        </mxCell>
        <mxCell id="oEvCSY-mzVVuWPamZBWD-43" value="PK" style="shape=partialRectangle;connectable=0;fillColor=none;top=0;left=0;bottom=0;right=0;fontStyle=1;overflow=hidden;whiteSpace=wrap;html=1;" vertex="1" parent="oEvCSY-mzVVuWPamZBWD-42">
          <mxGeometry width="30" height="30" as="geometry">
            <mxRectangle width="30" height="30" as="alternateBounds" />
          </mxGeometry>
        </mxCell>
        <mxCell id="oEvCSY-mzVVuWPamZBWD-44" value="professorId:INT" style="shape=partialRectangle;connectable=0;fillColor=none;top=0;left=0;bottom=0;right=0;align=left;spacingLeft=6;fontStyle=5;overflow=hidden;whiteSpace=wrap;html=1;" vertex="1" parent="oEvCSY-mzVVuWPamZBWD-42">
          <mxGeometry x="30" width="150" height="30" as="geometry">
            <mxRectangle width="150" height="30" as="alternateBounds" />
          </mxGeometry>
        </mxCell>
        <mxCell id="oEvCSY-mzVVuWPamZBWD-45" value="" style="shape=tableRow;horizontal=0;startSize=0;swimlaneHead=0;swimlaneBody=0;fillColor=none;collapsible=0;dropTarget=0;points=[[0,0.5],[1,0.5]];portConstraint=eastwest;top=0;left=0;right=0;bottom=0;" vertex="1" parent="oEvCSY-mzVVuWPamZBWD-41">
          <mxGeometry y="60" width="180" height="30" as="geometry" />
        </mxCell>
        <mxCell id="oEvCSY-mzVVuWPamZBWD-46" value="" style="shape=partialRectangle;connectable=0;fillColor=none;top=0;left=0;bottom=0;right=0;editable=1;overflow=hidden;whiteSpace=wrap;html=1;" vertex="1" parent="oEvCSY-mzVVuWPamZBWD-45">
          <mxGeometry width="30" height="30" as="geometry">
            <mxRectangle width="30" height="30" as="alternateBounds" />
          </mxGeometry>
        </mxCell>
        <mxCell id="oEvCSY-mzVVuWPamZBWD-47" value="nome: Varchar(255)" style="shape=partialRectangle;connectable=0;fillColor=none;top=0;left=0;bottom=0;right=0;align=left;spacingLeft=6;overflow=hidden;whiteSpace=wrap;html=1;" vertex="1" parent="oEvCSY-mzVVuWPamZBWD-45">
          <mxGeometry x="30" width="150" height="30" as="geometry">
            <mxRectangle width="150" height="30" as="alternateBounds" />
          </mxGeometry>
        </mxCell>
        <mxCell id="oEvCSY-mzVVuWPamZBWD-48" value="" style="shape=tableRow;horizontal=0;startSize=0;swimlaneHead=0;swimlaneBody=0;fillColor=none;collapsible=0;dropTarget=0;points=[[0,0.5],[1,0.5]];portConstraint=eastwest;top=0;left=0;right=0;bottom=0;" vertex="1" parent="oEvCSY-mzVVuWPamZBWD-41">
          <mxGeometry y="90" width="180" height="30" as="geometry" />
        </mxCell>
        <mxCell id="oEvCSY-mzVVuWPamZBWD-49" value="" style="shape=partialRectangle;connectable=0;fillColor=none;top=0;left=0;bottom=0;right=0;editable=1;overflow=hidden;whiteSpace=wrap;html=1;" vertex="1" parent="oEvCSY-mzVVuWPamZBWD-48">
          <mxGeometry width="30" height="30" as="geometry">
            <mxRectangle width="30" height="30" as="alternateBounds" />
          </mxGeometry>
        </mxCell>
        <mxCell id="oEvCSY-mzVVuWPamZBWD-50" value="email: Varchar(255)" style="shape=partialRectangle;connectable=0;fillColor=none;top=0;left=0;bottom=0;right=0;align=left;spacingLeft=6;overflow=hidden;whiteSpace=wrap;html=1;" vertex="1" parent="oEvCSY-mzVVuWPamZBWD-48">
          <mxGeometry x="30" width="150" height="30" as="geometry">
            <mxRectangle width="150" height="30" as="alternateBounds" />
          </mxGeometry>
        </mxCell>
        <mxCell id="oEvCSY-mzVVuWPamZBWD-51" value="" style="shape=tableRow;horizontal=0;startSize=0;swimlaneHead=0;swimlaneBody=0;fillColor=none;collapsible=0;dropTarget=0;points=[[0,0.5],[1,0.5]];portConstraint=eastwest;top=0;left=0;right=0;bottom=0;" vertex="1" parent="oEvCSY-mzVVuWPamZBWD-41">
          <mxGeometry y="120" width="180" height="30" as="geometry" />
        </mxCell>
        <mxCell id="oEvCSY-mzVVuWPamZBWD-52" value="" style="shape=partialRectangle;connectable=0;fillColor=none;top=0;left=0;bottom=0;right=0;editable=1;overflow=hidden;whiteSpace=wrap;html=1;" vertex="1" parent="oEvCSY-mzVVuWPamZBWD-51">
          <mxGeometry width="30" height="30" as="geometry">
            <mxRectangle width="30" height="30" as="alternateBounds" />
          </mxGeometry>
        </mxCell>
        <mxCell id="oEvCSY-mzVVuWPamZBWD-53" value="senha: Varchar(255)" style="shape=partialRectangle;connectable=0;fillColor=none;top=0;left=0;bottom=0;right=0;align=left;spacingLeft=6;overflow=hidden;whiteSpace=wrap;html=1;" vertex="1" parent="oEvCSY-mzVVuWPamZBWD-51">
          <mxGeometry x="30" width="150" height="30" as="geometry">
            <mxRectangle width="150" height="30" as="alternateBounds" />
          </mxGeometry>
        </mxCell>
        <mxCell id="oEvCSY-mzVVuWPamZBWD-67" value="Turma" style="shape=table;startSize=30;container=1;collapsible=1;childLayout=tableLayout;fixedRows=1;rowLines=0;fontStyle=1;align=center;resizeLast=1;html=1;whiteSpace=wrap;" vertex="1" parent="1">
          <mxGeometry x="1160" y="130" width="210" height="120" as="geometry" />
        </mxCell>
        <mxCell id="oEvCSY-mzVVuWPamZBWD-68" value="" style="shape=tableRow;horizontal=0;startSize=0;swimlaneHead=0;swimlaneBody=0;fillColor=none;collapsible=0;dropTarget=0;points=[[0,0.5],[1,0.5]];portConstraint=eastwest;top=0;left=0;right=0;bottom=0;html=1;" vertex="1" parent="oEvCSY-mzVVuWPamZBWD-67">
          <mxGeometry y="30" width="210" height="30" as="geometry" />
        </mxCell>
        <mxCell id="oEvCSY-mzVVuWPamZBWD-69" value="PK" style="shape=partialRectangle;connectable=0;fillColor=none;top=0;left=0;bottom=0;right=0;fontStyle=1;overflow=hidden;html=1;whiteSpace=wrap;" vertex="1" parent="oEvCSY-mzVVuWPamZBWD-68">
          <mxGeometry width="60" height="30" as="geometry">
            <mxRectangle width="60" height="30" as="alternateBounds" />
          </mxGeometry>
        </mxCell>
        <mxCell id="oEvCSY-mzVVuWPamZBWD-70" value="turmaId: INT" style="shape=partialRectangle;connectable=0;fillColor=none;top=0;left=0;bottom=0;right=0;align=left;spacingLeft=6;fontStyle=5;overflow=hidden;html=1;whiteSpace=wrap;" vertex="1" parent="oEvCSY-mzVVuWPamZBWD-68">
          <mxGeometry x="60" width="150" height="30" as="geometry">
            <mxRectangle width="150" height="30" as="alternateBounds" />
          </mxGeometry>
        </mxCell>
        <mxCell id="oEvCSY-mzVVuWPamZBWD-71" value="" style="shape=tableRow;horizontal=0;startSize=0;swimlaneHead=0;swimlaneBody=0;fillColor=none;collapsible=0;dropTarget=0;points=[[0,0.5],[1,0.5]];portConstraint=eastwest;top=0;left=0;right=0;bottom=1;html=1;" vertex="1" parent="oEvCSY-mzVVuWPamZBWD-67">
          <mxGeometry y="60" width="210" height="30" as="geometry" />
        </mxCell>
        <mxCell id="oEvCSY-mzVVuWPamZBWD-72" value="FK1" style="shape=partialRectangle;connectable=0;fillColor=none;top=0;left=0;bottom=0;right=0;fontStyle=1;overflow=hidden;html=1;whiteSpace=wrap;" vertex="1" parent="oEvCSY-mzVVuWPamZBWD-71">
          <mxGeometry width="60" height="30" as="geometry">
            <mxRectangle width="60" height="30" as="alternateBounds" />
          </mxGeometry>
        </mxCell>
        <mxCell id="oEvCSY-mzVVuWPamZBWD-73" value="professorId:INT" style="shape=partialRectangle;connectable=0;fillColor=none;top=0;left=0;bottom=0;right=0;align=left;spacingLeft=6;fontStyle=5;overflow=hidden;html=1;whiteSpace=wrap;" vertex="1" parent="oEvCSY-mzVVuWPamZBWD-71">
          <mxGeometry x="60" width="150" height="30" as="geometry">
            <mxRectangle width="150" height="30" as="alternateBounds" />
          </mxGeometry>
        </mxCell>
        <mxCell id="oEvCSY-mzVVuWPamZBWD-74" value="" style="shape=tableRow;horizontal=0;startSize=0;swimlaneHead=0;swimlaneBody=0;fillColor=none;collapsible=0;dropTarget=0;points=[[0,0.5],[1,0.5]];portConstraint=eastwest;top=0;left=0;right=0;bottom=0;html=1;" vertex="1" parent="oEvCSY-mzVVuWPamZBWD-67">
          <mxGeometry y="90" width="210" height="30" as="geometry" />
        </mxCell>
        <mxCell id="oEvCSY-mzVVuWPamZBWD-75" value="" style="shape=partialRectangle;connectable=0;fillColor=none;top=0;left=0;bottom=0;right=0;editable=1;overflow=hidden;html=1;whiteSpace=wrap;" vertex="1" parent="oEvCSY-mzVVuWPamZBWD-74">
          <mxGeometry width="60" height="30" as="geometry">
            <mxRectangle width="60" height="30" as="alternateBounds" />
          </mxGeometry>
        </mxCell>
        <mxCell id="oEvCSY-mzVVuWPamZBWD-76" value="nome: VARCHAR(255)" style="shape=partialRectangle;connectable=0;fillColor=none;top=0;left=0;bottom=0;right=0;align=left;spacingLeft=6;overflow=hidden;html=1;whiteSpace=wrap;" vertex="1" parent="oEvCSY-mzVVuWPamZBWD-74">
          <mxGeometry x="60" width="150" height="30" as="geometry">
            <mxRectangle width="150" height="30" as="alternateBounds" />
          </mxGeometry>
        </mxCell>
        <mxCell id="oEvCSY-mzVVuWPamZBWD-80" style="edgeStyle=orthogonalEdgeStyle;rounded=0;orthogonalLoop=1;jettySize=auto;html=1;exitX=1;exitY=0.5;exitDx=0;exitDy=0;entryX=0;entryY=0.5;entryDx=0;entryDy=0;endArrow=ERoneToMany;endFill=0;" edge="1" parent="1" source="oEvCSY-mzVVuWPamZBWD-42" target="oEvCSY-mzVVuWPamZBWD-71">
          <mxGeometry relative="1" as="geometry" />
        </mxCell>
        <mxCell id="oEvCSY-mzVVuWPamZBWD-81" value="Atividade" style="shape=table;startSize=30;container=1;collapsible=1;childLayout=tableLayout;fixedRows=1;rowLines=0;fontStyle=1;align=center;resizeLast=1;html=1;whiteSpace=wrap;" vertex="1" parent="1">
          <mxGeometry x="1420" y="130" width="210" height="120" as="geometry" />
        </mxCell>
        <mxCell id="oEvCSY-mzVVuWPamZBWD-82" value="" style="shape=tableRow;horizontal=0;startSize=0;swimlaneHead=0;swimlaneBody=0;fillColor=none;collapsible=0;dropTarget=0;points=[[0,0.5],[1,0.5]];portConstraint=eastwest;top=0;left=0;right=0;bottom=0;html=1;" vertex="1" parent="oEvCSY-mzVVuWPamZBWD-81">
          <mxGeometry y="30" width="210" height="30" as="geometry" />
        </mxCell>
        <mxCell id="oEvCSY-mzVVuWPamZBWD-83" value="PK" style="shape=partialRectangle;connectable=0;fillColor=none;top=0;left=0;bottom=0;right=0;fontStyle=1;overflow=hidden;html=1;whiteSpace=wrap;" vertex="1" parent="oEvCSY-mzVVuWPamZBWD-82">
          <mxGeometry width="60" height="30" as="geometry">
            <mxRectangle width="60" height="30" as="alternateBounds" />
          </mxGeometry>
        </mxCell>
        <mxCell id="oEvCSY-mzVVuWPamZBWD-84" value="atividadeId: INT" style="shape=partialRectangle;connectable=0;fillColor=none;top=0;left=0;bottom=0;right=0;align=left;spacingLeft=6;fontStyle=5;overflow=hidden;html=1;whiteSpace=wrap;" vertex="1" parent="oEvCSY-mzVVuWPamZBWD-82">
          <mxGeometry x="60" width="150" height="30" as="geometry">
            <mxRectangle width="150" height="30" as="alternateBounds" />
          </mxGeometry>
        </mxCell>
        <mxCell id="oEvCSY-mzVVuWPamZBWD-85" value="" style="shape=tableRow;horizontal=0;startSize=0;swimlaneHead=0;swimlaneBody=0;fillColor=none;collapsible=0;dropTarget=0;points=[[0,0.5],[1,0.5]];portConstraint=eastwest;top=0;left=0;right=0;bottom=1;html=1;" vertex="1" parent="oEvCSY-mzVVuWPamZBWD-81">
          <mxGeometry y="60" width="210" height="30" as="geometry" />
        </mxCell>
        <mxCell id="oEvCSY-mzVVuWPamZBWD-86" value="FK1" style="shape=partialRectangle;connectable=0;fillColor=none;top=0;left=0;bottom=0;right=0;fontStyle=1;overflow=hidden;html=1;whiteSpace=wrap;" vertex="1" parent="oEvCSY-mzVVuWPamZBWD-85">
          <mxGeometry width="60" height="30" as="geometry">
            <mxRectangle width="60" height="30" as="alternateBounds" />
          </mxGeometry>
        </mxCell>
        <mxCell id="oEvCSY-mzVVuWPamZBWD-87" value="turmaId:INT" style="shape=partialRectangle;connectable=0;fillColor=none;top=0;left=0;bottom=0;right=0;align=left;spacingLeft=6;fontStyle=5;overflow=hidden;html=1;whiteSpace=wrap;" vertex="1" parent="oEvCSY-mzVVuWPamZBWD-85">
          <mxGeometry x="60" width="150" height="30" as="geometry">
            <mxRectangle width="150" height="30" as="alternateBounds" />
          </mxGeometry>
        </mxCell>
        <mxCell id="oEvCSY-mzVVuWPamZBWD-88" value="" style="shape=tableRow;horizontal=0;startSize=0;swimlaneHead=0;swimlaneBody=0;fillColor=none;collapsible=0;dropTarget=0;points=[[0,0.5],[1,0.5]];portConstraint=eastwest;top=0;left=0;right=0;bottom=0;html=1;" vertex="1" parent="oEvCSY-mzVVuWPamZBWD-81">
          <mxGeometry y="90" width="210" height="30" as="geometry" />
        </mxCell>
        <mxCell id="oEvCSY-mzVVuWPamZBWD-89" value="" style="shape=partialRectangle;connectable=0;fillColor=none;top=0;left=0;bottom=0;right=0;editable=1;overflow=hidden;html=1;whiteSpace=wrap;" vertex="1" parent="oEvCSY-mzVVuWPamZBWD-88">
          <mxGeometry width="60" height="30" as="geometry">
            <mxRectangle width="60" height="30" as="alternateBounds" />
          </mxGeometry>
        </mxCell>
        <mxCell id="oEvCSY-mzVVuWPamZBWD-90" value="nome: VARCHAR(255)" style="shape=partialRectangle;connectable=0;fillColor=none;top=0;left=0;bottom=0;right=0;align=left;spacingLeft=6;overflow=hidden;html=1;whiteSpace=wrap;" vertex="1" parent="oEvCSY-mzVVuWPamZBWD-88">
          <mxGeometry x="60" width="150" height="30" as="geometry">
            <mxRectangle width="150" height="30" as="alternateBounds" />
          </mxGeometry>
        </mxCell>
        <mxCell id="oEvCSY-mzVVuWPamZBWD-91" style="edgeStyle=orthogonalEdgeStyle;rounded=0;orthogonalLoop=1;jettySize=auto;html=1;exitX=1;exitY=0.5;exitDx=0;exitDy=0;entryX=0;entryY=0.806;entryDx=0;entryDy=0;entryPerimeter=0;endArrow=ERoneToMany;endFill=0;" edge="1" parent="1" source="oEvCSY-mzVVuWPamZBWD-68" target="oEvCSY-mzVVuWPamZBWD-85">
          <mxGeometry relative="1" as="geometry" />
        </mxCell>
      </root>
    </mxGraphModel>
  </diagram>
</mxfile>
